<svg width="24" height="24" viewBox="0 0 24 24" fill="none" xmlns="http://www.w3.org/2000/svg">
<g id="Group 9582">
<g id="Group 2">
<path id="Vector" d="M4.09019 8.98535H7.71443V12.6096H4.09019V8.98535ZM8.07458 9.01722H11.6988V12.6415H8.07458V9.01722ZM12.059 9.01722H15.6832V12.6415H12.059V9.01722ZM16.0433 8.98535H19.6676V12.6096H16.0434L16.0433 8.98535ZM4.05667 13.2928H7.68089V16.917H4.05667V13.2928ZM8.05486 13.3087H11.6791V16.9329H8.05486V13.3087V13.3087ZM12.053 13.3087H15.6773V16.9329H12.053V13.3087V13.3087ZM16.0512 13.2928H19.6755V16.917H16.0512V13.2928ZM4.09019 17.3724H7.71443V20.9967H4.09019V17.3724V17.3724ZM8.07742 17.3724H11.7017V20.9967H8.07742V17.3724V17.3724ZM12.0647 17.3724H15.6889V20.9967H12.0647V17.3724V17.3724ZM16.0519 17.3724H19.6762V20.9967H16.0519V17.3724V17.3724Z" fill="#D9D9D9"/>
<path id="Vector_2" d="M19.1808 4.93996H17.9272V3.61875C17.9272 2.87156 17.3193 2.26367 16.5721 2.26367H15.9912C15.244 2.26367 14.6361 2.87156 14.6361 3.61875V4.93998H9.18644V3.61875C9.18644 2.87156 8.57853 2.26367 7.83134 2.26367H7.25051C6.5033 2.26367 5.89541 2.87156 5.89541 3.61875V4.93998H4.68983C3.60212 4.93998 2.71722 5.8249 2.71722 6.91261V20.2156C2.71722 21.3033 3.60217 22.1882 4.68983 22.1882H19.1808C20.2685 22.1882 21.1534 21.3033 21.1534 20.2156V6.91259C21.1534 5.82488 20.2685 4.93996 19.1808 4.93996ZM15.5523 3.66968C15.5523 3.42485 15.7515 3.22563 15.9964 3.22563H16.5772C16.8221 3.22563 17.0213 3.42483 17.0213 3.66968V6.59796C17.0213 6.84281 16.8221 7.04204 16.5772 7.04204H15.9964C15.7515 7.04204 15.5523 6.84283 15.5523 6.59796V3.66968ZM6.76549 3.66968C6.76549 3.42485 6.96471 3.22563 7.20958 3.22563H7.79038C8.03526 3.22563 8.23444 3.42483 8.23444 3.66968V6.59796C8.23444 6.84281 8.03523 7.04204 7.79038 7.04204H7.20958C6.96471 7.04204 6.76549 6.84283 6.76549 6.59796V3.66968ZM20.2575 20.3085C20.2575 20.9044 19.7745 21.3874 19.1787 21.3874H4.63779C4.04197 21.3874 3.55892 20.9044 3.55892 20.3085V8.59447H20.2576V20.3085H20.2575Z" fill="#D9D9D9"/>
</g>
</g>
</svg>
