<svg width="21" height="21" viewBox="0 0 21 21" fill="none" xmlns="http://www.w3.org/2000/svg">
<path d="M3.87607 12.2179H5.40965V13.5472H3.87607V12.2179ZM3.87607 8.23253H5.40965V9.56179H3.87607V8.23253ZM3.87607 4.24955H5.40965V5.57881H3.87607V4.24955ZM6.94323 12.2179H17.6711V13.5472H6.94323V12.2179ZM6.94323 8.23253H17.6711V9.56179H6.94323V8.23253ZM6.94323 4.24955H17.6711V5.57881H6.94323V4.24955ZM0.81131 1.63188V18.321C0.81131 19.4411 1.89299 20.1887 3.12851 20.1887H20.7358V19.0686H3.12851C2.66459 19.0686 2.35451 18.8186 2.35451 18.446C2.35451 18.0734 2.66218 17.8234 3.12851 17.8234H20.7358V0.26416H2.51075C1.73915 0.38675 0.965149 1.01172 0.81131 1.63188Z" fill="#48D780"/>
</svg>
