<svg width="21" height="21" viewBox="0 0 21 21" fill="none" xmlns="http://www.w3.org/2000/svg">
<path d="M3.87607 12.2174H5.40965V13.5467H3.87607V12.2174ZM3.87607 8.23204H5.40965V9.56131H3.87607V8.23204ZM3.87607 4.24906H5.40965V5.57832H3.87607V4.24906ZM6.94323 12.2174H17.6711V13.5467H6.94323V12.2174ZM6.94323 8.23204H17.6711V9.56131H6.94323V8.23204ZM6.94323 4.24906H17.6711V5.57832H6.94323V4.24906ZM0.81131 1.63139V18.3205C0.81131 19.4406 1.89299 20.1882 3.12851 20.1882H20.7358V19.0681H3.12851C2.66459 19.0681 2.35451 18.8181 2.35451 18.4455C2.35451 18.0729 2.66218 17.8229 3.12851 17.8229H20.7358V0.263672H2.51075C1.73915 0.386262 0.965149 1.01123 0.81131 1.63139Z" fill="#D9D9D9"/>
</svg>
