<svg width="24" height="24" viewBox="0 0 24 24" fill="none" xmlns="http://www.w3.org/2000/svg">
<g id="Group 9581">
<g id="Group 4">
<path id="Vector" d="M22.4527 8.48413L21.1768 7.31461C20.8791 7.01691 20.2944 7.01691 19.8053 7.4103L10.7787 16.3518C10.3854 16.7345 10.2897 17.3193 10.683 17.7127L11.8632 18.8822C12.1609 19.1799 12.7457 19.1799 13.2347 18.7865L22.2613 9.84502C22.644 9.45164 22.7397 8.86688 22.4527 8.48413ZM12.8413 20.0517L9.10951 22.0931H16.7645C17.3068 22.0931 17.7427 21.6572 17.7427 21.1256V15.3843L13.139 19.956C13.0327 19.956 12.937 19.956 12.8413 20.0517Z" fill="#D9D9D9"/>
<path id="Vector_2" d="M9.6942 17.8188L7.73791 22.1886L12.0545 20.0516L9.6942 17.8188Z" fill="#D9D9D9"/>
<path id="Vector_3" d="M16.7644 2.26435H2.33675C1.80516 2.25372 1.35861 2.68963 1.35861 3.23186V21.0298C1.35861 21.6146 1.84768 21.9973 2.33675 21.9973H7.44011L9.50271 17.2342C9.5984 17.0428 9.70472 16.8408 9.89609 16.6494L17.7425 8.86681V3.23186C17.7425 2.68963 17.296 2.25372 16.7644 2.26435ZM7.84412 11.5886H3.80397C3.45311 11.5886 3.16605 11.3015 3.16605 10.9507C3.16605 10.5998 3.45311 10.3128 3.80397 10.3128H7.84412C8.19498 10.3128 8.48204 10.5998 8.48204 10.9507C8.48204 11.3015 8.19498 11.5886 7.84412 11.5886ZM15.2865 8.82428H3.80397C3.45311 8.82428 3.16605 8.53722 3.16605 8.18637C3.16605 7.83551 3.45311 7.54845 3.80397 7.54845H15.2865C15.6374 7.54845 15.9244 7.83551 15.9244 8.18637C15.9244 8.53722 15.6374 8.82428 15.2865 8.82428ZM15.2865 6.05997H3.80397C3.45311 6.05997 3.16605 5.77291 3.16605 5.42205C3.16605 5.07119 3.45311 4.78413 3.80397 4.78413H15.2865C15.6374 4.78413 15.9244 5.07119 15.9244 5.42205C15.9244 5.77291 15.6374 6.05997 15.2865 6.05997Z" fill="#D9D9D9"/>
</g>
</g>
</svg>
