<svg width="24" height="24" viewBox="0 0 24 24" fill="none" xmlns="http://www.w3.org/2000/svg">
<g id="Group 9581">
<g id="Group 4">
<path id="Vector" d="M22.4527 8.48364L21.1768 7.31412C20.8791 7.01642 20.2944 7.01642 19.8053 7.40981L10.7787 16.3513C10.3854 16.7341 10.2897 17.3188 10.683 17.7122L11.8632 18.8817C12.1609 19.1794 12.7457 19.1794 13.2347 18.786L22.2613 9.84453C22.644 9.45115 22.7397 8.86639 22.4527 8.48364ZM12.8413 20.0512L9.10951 22.0926H16.7645C17.3068 22.0926 17.7427 21.6567 17.7427 21.1251V15.3838L13.139 19.9555C13.0327 19.9555 12.937 19.9555 12.8413 20.0512Z" fill="#48D780"/>
<path id="Vector_2" d="M9.6942 17.8184L7.73791 22.1881L12.0545 20.0511L9.6942 17.8184Z" fill="#48D780"/>
<path id="Vector_3" d="M16.7644 2.26386H2.33675C1.80516 2.25323 1.35861 2.68914 1.35861 3.23137V21.0293C1.35861 21.6141 1.84768 21.9968 2.33675 21.9968H7.44011L9.50271 17.2337C9.5984 17.0423 9.70472 16.8403 9.89609 16.6489L17.7425 8.86632V3.23137C17.7425 2.68914 17.296 2.25323 16.7644 2.26386ZM7.84412 11.5881H3.80397C3.45311 11.5881 3.16605 11.301 3.16605 10.9502C3.16605 10.5993 3.45311 10.3123 3.80397 10.3123H7.84412C8.19498 10.3123 8.48204 10.5993 8.48204 10.9502C8.48204 11.301 8.19498 11.5881 7.84412 11.5881ZM15.2865 8.8238H3.80397C3.45311 8.8238 3.16605 8.53673 3.16605 8.18588C3.16605 7.83502 3.45311 7.54796 3.80397 7.54796H15.2865C15.6374 7.54796 15.9244 7.83502 15.9244 8.18588C15.9244 8.53673 15.6374 8.8238 15.2865 8.8238ZM15.2865 6.05948H3.80397C3.45311 6.05948 3.16605 5.77242 3.16605 5.42156C3.16605 5.07071 3.45311 4.78364 3.80397 4.78364H15.2865C15.6374 4.78364 15.9244 5.07071 15.9244 5.42156C15.9244 5.77242 15.6374 6.05948 15.2865 6.05948Z" fill="#48D780"/>
</g>
</g>
</svg>
