<svg width="24" height="24" viewBox="0 0 24 24" fill="none" xmlns="http://www.w3.org/2000/svg">
<g id="Group 9583">
<g id="Group 1">
<path id="Vector" d="M12.2285 14.9432C20.9091 14.9432 20.8219 20.3882 20.8219 20.3882C20.8876 20.8825 20.5358 21.2831 20.0348 21.2831H4.42165C3.9211 21.2831 3.54937 20.8767 3.63455 20.3882C3.63455 20.3882 3.54779 14.9432 12.2285 14.9432ZM12.2264 3.16992H17.6603V8.60388C17.6603 11.6051 15.2275 14.0378 12.2264 14.0378C9.22519 14.0378 6.7924 11.6051 6.7924 8.60388C6.7924 5.60272 9.22519 3.16992 12.2264 3.16992Z" fill="#11D075"/>
<path id="Vector 1" d="M11.8363 10.9845C11.4382 10.7836 11.3505 10.7666 11.1346 10.3852C10.9707 10.0958 11.0266 9.80409 11.0806 9.73145H13.6177C13.6716 9.89489 13.5961 10.3198 13.2938 10.7121C12.9159 11.2025 12.0522 11.0935 11.8363 10.9845Z" fill="white"/>
</g>
</g>
</svg>
