<svg width="22" height="19" viewBox="0 0 22 19" fill="none" xmlns="http://www.w3.org/2000/svg">
<path id="Vector" d="M11.0104 8.1279C11.5919 8.12589 12.156 8.32808 12.6067 8.70001C13.0574 9.07194 13.3667 9.59058 13.4819 10.1675C13.5972 10.7445 13.5112 11.3441 13.2387 11.8641C12.9662 12.384 12.5239 12.7922 11.9874 13.0191C11.4509 13.2459 10.8532 13.2774 10.2963 13.1081C9.73943 12.9388 9.25777 12.5792 8.93344 12.0907C8.60912 11.6021 8.46219 11.0148 8.51771 10.4288C8.57323 9.84289 8.82775 9.29457 9.23791 8.87733C9.46969 8.6399 9.7457 8.45141 10.05 8.32277C10.3542 8.19412 10.6807 8.12789 11.0104 8.1279ZM11.0104 14.9678C11.8518 14.9678 12.6743 14.7152 13.3738 14.242C14.0734 13.7688 14.6187 13.0962 14.9406 12.3093C15.2626 11.5224 15.3469 10.6564 15.1827 9.82103C15.0186 8.98562 14.6134 8.21825 14.0185 7.61596C13.4236 7.01367 12.6656 6.6035 11.8404 6.43732C11.0152 6.27115 10.1598 6.35644 9.38249 6.68239C8.60517 7.00835 7.94078 7.56034 7.47334 8.26856C7.0059 8.97678 6.7564 9.80943 6.7564 10.6612C6.75917 11.8015 7.20857 12.8942 8.00606 13.6996C8.80354 14.505 9.88399 14.9573 11.0104 14.9573V14.9678ZM13.054 1.79462H8.94598L8.091 2.71295H13.909L13.054 1.79462ZM1.58485 2.71295H5.65118L7.94502 0.253523C8.12707 0.0854705 8.36602 -0.0052255 8.61233 0.000232818H13.3981C13.636 -0.00377525 13.8668 0.0828745 14.0445 0.243003L16.3488 2.71295H20.4569C20.8653 2.71572 21.2562 2.8812 21.545 3.17357C21.8338 3.46595 21.9973 3.8617 22 4.27516V17.4378C21.9973 17.8513 21.8338 18.247 21.545 18.5394C21.2562 18.8318 20.8653 18.9972 20.4569 19H1.54313C1.13471 18.9972 0.743792 18.8318 0.454987 18.5394C0.166182 18.247 0.00272751 17.8513 0 17.4378V4.27516C0.00272751 3.86169 0.166182 3.46594 0.454987 3.17356C0.743792 2.88119 1.13471 2.71571 1.54313 2.71295H1.58485Z" fill="#BEBEBE"/>
</svg>
