<svg width="17" height="17" viewBox="0 0 17 17" fill="none" xmlns="http://www.w3.org/2000/svg">
<path id="Vector" d="M7.62011 14.1164C7.88969 13.9683 8.19228 13.8907 8.49984 13.8907C8.80741 13.8907 9.10999 13.9683 9.37957 14.1164L13.0617 16.1325C13.0875 16.1471 13.1175 16.1522 13.1467 16.147C13.2342 16.1317 13.3082 16.0229 13.2878 15.8963L12.5908 11.6132C12.5415 11.3137 12.5631 11.0068 12.6539 10.7172C12.7447 10.4276 12.9021 10.1633 13.1135 9.94554L16.0868 6.90857C16.1198 6.87289 16.1406 6.82765 16.1463 6.77937C16.165 6.65272 16.0893 6.54733 16.0018 6.53373L11.8887 5.90304C11.5866 5.85516 11.3008 5.73387 11.0564 5.54981C10.812 5.36576 10.6165 5.12456 10.4871 4.84737L8.64264 0.95446C8.62564 0.916505 8.59668 0.885159 8.56019 0.865212C8.48964 0.828663 8.40295 0.859262 8.3579 0.95446L6.51259 4.84737C6.38307 5.12467 6.18745 5.36593 5.94293 5.55C5.6984 5.73406 5.41243 5.85529 5.11012 5.90304L0.997072 6.53373C0.963567 6.53972 0.933041 6.55678 0.910375 6.58218C0.870928 6.62753 0.849417 6.68574 0.849886 6.74585C0.850356 6.80596 0.872774 6.86383 0.912925 6.90857L3.88615 9.94469C4.31454 10.3824 4.50749 11.0038 4.40889 11.6124L3.71191 15.8963C3.70341 15.9489 3.71191 16.0033 3.73486 16.0492C3.78161 16.1419 3.86745 16.1699 3.938 16.1317L7.62011 14.1155V14.1164ZM4.34599 16.8788C3.84875 17.1508 3.23507 16.9494 2.97498 16.43C2.87157 16.223 2.83589 15.9887 2.87298 15.7603L3.56996 11.4764C3.59784 11.3083 3.58599 11.1361 3.53536 10.9734C3.48474 10.8108 3.39674 10.6622 3.27842 10.5397L0.306039 7.5027C0.112656 7.30168 0.00322914 7.03446 7.03331e-05 6.75554C-0.00308848 6.47662 0.100259 6.20699 0.289039 6.00164C0.444586 5.83589 0.648581 5.7271 0.867876 5.69395L4.98178 5.06241C5.14652 5.03567 5.30219 4.96891 5.43512 4.86799C5.56805 4.76707 5.67418 4.63507 5.74421 4.48358L7.58952 0.590669C7.83856 0.0653814 8.44884 -0.149663 8.95033 0.11043C9.15008 0.213278 9.31157 0.382424 9.40932 0.590669L11.2555 4.48358C11.3255 4.63507 11.4316 4.76707 11.5646 4.86799C11.6975 4.96891 11.8532 5.03567 12.0179 5.06241L16.1318 5.69395C16.686 5.77894 17.0702 6.31783 16.9886 6.89837C16.9563 7.12786 16.8526 7.34036 16.6936 7.5027L13.7213 10.5397C13.4833 10.7836 13.3736 11.1338 13.4297 11.4772L14.1267 15.7603C14.2202 16.3382 13.8488 16.8856 13.2954 16.9842C13.0757 17.0231 12.8492 16.9856 12.6537 16.878L8.97073 14.8618C8.82635 14.7824 8.66422 14.7407 8.49942 14.7407C8.33461 14.7407 8.17249 14.7824 8.0281 14.8618L4.34599 16.878V16.8788Z" fill="white"/>
</svg>
