<svg width="17" height="17" viewBox="0 0 17 17" fill="none" xmlns="http://www.w3.org/2000/svg">
<g id="&#231;&#186;&#160;&#233;&#148;&#153; 1">
<path id="Vector" d="M15.8068 15.3044L13.4841 12.9817C16.2659 9.96809 16.2272 5.25445 13.2522 2.31809C10.2772 -0.695548 5.37043 -0.695548 2.31816 2.31809C-0.656836 5.33172 -0.656836 10.2385 2.31816 13.2522C3.82498 14.759 5.79543 15.4931 7.80452 15.4931C9.62043 15.4931 11.5136 14.7976 12.9432 13.484L15.2659 15.8067C15.4204 15.9613 15.6522 15.9613 15.8068 15.8067C15.9613 15.6908 15.9613 15.459 15.8068 15.3044ZM12.75 12.7113C10.0454 15.4158 5.60225 15.4158 2.89771 12.7113C0.193164 10.0067 0.193164 5.52491 2.89771 2.859C4.24998 1.50672 6.02725 0.849907 7.80452 0.849907C9.58179 0.849907 11.3977 1.50672 12.75 2.859C15.4159 5.52491 15.4159 10.0067 12.75 12.7113ZM12.325 8.61581L8.3068 7.534L9.38861 3.43854C9.42725 3.24536 9.31134 3.01354 9.11816 2.97491C8.92498 2.93627 8.69316 3.05218 8.65452 3.24536L7.53407 7.34081L3.36134 6.22036C3.16816 6.18172 2.93634 6.29763 2.89771 6.49081C2.85907 6.684 2.97498 6.91581 3.16816 6.95445L7.34089 8.07491L6.25907 12.1704C6.22043 12.3635 6.33634 12.5954 6.52952 12.634C6.72271 12.6726 6.95452 12.5567 6.99316 12.3635L8.07498 8.26809L12.0932 9.34991C12.2863 9.38854 12.5182 9.27263 12.5568 9.07945C12.6341 8.88627 12.5182 8.65445 12.325 8.61581Z" fill="#292929"/>
</g>
</svg>
