<svg width="17" height="16" viewBox="0 0 17 16" fill="none" xmlns="http://www.w3.org/2000/svg">
<g id="Group 9602">
<path id="Vector" d="M15.9008 15.1657H0.417142C0.186713 15.1657 0 15.3524 0 15.5829C0 15.8133 0.186713 16 0.417142 16H15.9008C16.1312 16 16.3179 15.8133 16.3179 15.5829C16.3179 15.3524 16.1312 15.1657 15.9008 15.1657ZM1.02834 13.9618C1.06655 13.9618 1.10509 13.9567 1.14297 13.9458L3.70989 13.2127C3.77814 13.1931 3.84021 13.1566 3.89027 13.1064L11.9581 5.03868C12.1211 4.87582 12.1211 4.61169 11.9581 4.44884C11.7951 4.28582 11.5311 4.28582 11.3683 4.44884L4.38984 11.427L3.03462 10.0716C2.98657 10.0235 2.92934 9.99149 2.86877 9.97163L9.69638 3.14402C9.8594 2.98116 9.8594 2.71703 9.69638 2.55418C9.53336 2.39116 9.2694 2.39116 9.10654 2.55418L1.10009 10.5606C1.03551 10.625 0.993966 10.709 0.981785 10.7992L0.615034 13.4883C0.596012 13.628 0.648739 13.7676 0.755194 13.8601C0.831948 13.9265 0.929225 13.9618 1.02834 13.9618ZM1.78937 11.051L2.34484 10.4957C2.36453 10.5561 2.39673 10.6134 2.44462 10.6614L3.8 12.017L3.37685 12.4401L1.52807 12.968L1.78937 11.051ZM12.1702 4.18437C12.2503 4.25845 12.3519 4.29516 12.453 4.29516C12.5653 4.29516 12.6773 4.25011 12.7595 4.16118L14.2317 2.56836C14.3068 2.4871 14.3465 2.37931 14.3422 2.26885C14.3378 2.15839 14.2898 2.05394 14.2084 1.97886L12.1862 0.110727C12.017 -0.045618 11.7529 -0.0351058 11.5969 0.134087L10.1252 1.7269C9.96869 1.89609 9.97921 2.16006 10.1486 2.31641L12.1702 4.18437ZM11.9266 1.00658L13.3359 2.3084L12.4298 3.28851L11.0211 1.98653L11.9266 1.00658Z" fill="white"/>
</g>
</svg>
