<svg width="11" height="14" viewBox="0 0 11 14" fill="none" xmlns="http://www.w3.org/2000/svg">
<g id="Group 9589">
<path id="Vector" d="M0 6.99514C0 7.28075 0.113461 7.55467 0.315423 7.75664C0.517386 7.9586 0.791305 8.07206 1.07692 8.07206C1.36254 8.07206 1.63646 7.9586 1.83842 7.75664C2.04039 7.55467 2.15385 7.28075 2.15385 6.99514C2.15385 6.70952 2.04039 6.4356 1.83842 6.23364C1.63646 6.03167 1.36254 5.91821 1.07692 5.91821C0.791305 5.91821 0.517386 6.03167 0.315423 6.23364C0.113461 6.4356 0 6.70952 0 6.99514Z" fill="#11D075"/>
<path id="Vector_2" d="M4.10125 3.13759C4.05118 3.18746 4.01146 3.24672 3.98436 3.31198C3.95725 3.37724 3.9433 3.44721 3.9433 3.51788C3.9433 3.58854 3.95725 3.65851 3.98436 3.72377C4.01146 3.78903 4.05118 3.84829 4.10125 3.89816C4.51357 4.30152 4.84118 4.78316 5.06484 5.31484C5.2885 5.84652 5.40371 6.41751 5.40371 6.99432C5.40371 7.57112 5.2885 8.14212 5.06484 8.6738C4.84118 9.20547 4.51357 9.68712 4.10125 10.0905C4.04984 10.1398 4.00875 10.1989 3.98036 10.2643C3.95197 10.3297 3.93684 10.4 3.93584 10.4713C3.93485 10.5426 3.94802 10.6133 3.97458 10.6795C4.00114 10.7456 4.04056 10.8058 4.09057 10.8566C4.14058 10.9074 4.20017 10.9477 4.26589 10.9753C4.33161 11.0029 4.40215 11.0172 4.47343 11.0173C4.5447 11.0174 4.61529 11.0033 4.68109 10.976C4.7469 10.9486 4.80661 10.9084 4.85678 10.8578C5.37085 10.3542 5.77926 9.75313 6.05808 9.08972C6.33689 8.42631 6.48051 7.71393 6.48051 6.99432C6.48051 6.2747 6.33689 5.56232 6.05808 4.89892C5.77926 4.23551 5.37085 3.63442 4.85678 3.13086C4.75538 3.03217 4.61911 2.97752 4.47763 2.97878C4.33614 2.98004 4.20087 3.03711 4.10125 3.13759Z" fill="#11D075"/>
<path id="Vector_3" d="M7.88998 0.150122C7.78782 0.0519962 7.65111 -0.00192162 7.50947 5.23516e-05C7.36783 0.00202632 7.23267 0.0597332 7.13329 0.160668C7.0339 0.261603 6.97829 0.397635 6.97851 0.539287C6.97873 0.680939 7.03475 0.8168 7.13445 0.91743C7.94404 1.70913 8.5873 2.65459 9.02647 3.69831C9.46565 4.74202 9.69187 5.86296 9.69187 6.99532C9.69187 8.12767 9.46565 9.24861 9.02647 10.2923C8.5873 11.336 7.94404 12.2815 7.13445 13.0732C7.08305 13.1226 7.04196 13.1817 7.01356 13.247C6.98517 13.3124 6.97004 13.3828 6.96905 13.454C6.96805 13.5253 6.98122 13.5961 7.00778 13.6622C7.03434 13.7283 7.07377 13.7885 7.12377 13.8393C7.17378 13.8901 7.23337 13.9305 7.29909 13.9581C7.36481 13.9856 7.43536 13.9999 7.50663 14C7.5779 14.0001 7.64849 13.9861 7.7143 13.9587C7.7801 13.9313 7.83982 13.8911 7.88998 13.8405C8.80153 12.9487 9.52578 11.8839 10.0202 10.7084C10.5147 9.53292 10.7694 8.27054 10.7694 6.99532C10.7694 5.72009 10.5147 4.45771 10.0202 3.28224C9.52578 2.10678 8.80153 1.04191 7.88998 0.150122Z" fill="#11D075"/>
</g>
</svg>
