<svg width="48" height="48" viewBox="0 0 48 48" fill="none" xmlns="http://www.w3.org/2000/svg">
<g id="&#229;&#138;&#168;&#230;&#128;&#129;">
<path id="Vector" d="M27.4416 8.51043C27.4944 8.57763 27.5568 8.64003 27.6048 8.71203C27.552 8.64003 27.4944 8.57763 27.4416 8.51043ZM18.9936 14.688C18.94 14.7967 18.8807 14.9024 18.816 15.0048C18.8809 14.9025 18.9402 14.7968 18.9936 14.688Z" fill="#FFBA00"/>
<path id="Vector_2" d="M39.2688 17.3909L33.2016 16.5269C32.6483 16.4484 32.1224 16.2366 31.6691 15.9096C31.2159 15.5826 30.849 15.1504 30.6 14.6501L27.9984 9.42285C28.4947 10.6877 28.5376 12.0855 28.1198 13.3784C27.7021 14.6714 26.8494 15.7798 25.7068 16.5151C24.5642 17.2504 23.2022 17.5674 21.8523 17.412C20.5025 17.2566 19.2481 16.6385 18.3024 15.6629C17.7875 16.1749 17.1239 16.5109 16.4064 16.6229L10.344 17.4869C9.70885 17.582 9.11292 17.8527 8.62344 18.2685C8.13395 18.6843 7.77038 19.2286 7.57374 19.84C7.37709 20.4514 7.3552 21.1055 7.51052 21.7287C7.66585 22.3519 7.99221 22.9193 8.4528 23.3669L12.8544 27.6293C13.2554 28.0183 13.5558 28.4991 13.7298 29.03C13.9037 29.561 13.9459 30.1263 13.8528 30.6773L12.84 36.7253C12.7383 37.3576 12.8148 38.0058 13.061 38.5971C13.3072 39.1884 13.7133 39.6994 14.2337 40.0727C14.7541 40.4461 15.3682 40.667 16.0072 40.7108C16.6462 40.7546 17.2848 40.6194 17.8512 40.3205L23.2704 37.4404C23.7649 37.1806 24.315 37.0449 24.8736 37.0449C25.4322 37.0449 25.9824 37.1806 26.4768 37.4404L31.9104 40.2773C32.4804 40.5741 33.1221 40.7057 33.7629 40.6571C34.4038 40.6085 35.0183 40.3816 35.537 40.0022C36.0557 39.6228 36.458 39.1058 36.6985 38.5098C36.9389 37.9138 37.0079 37.2624 36.8976 36.6293L35.8416 30.5909C35.7428 30.0423 35.7786 29.478 35.9458 28.9463C36.113 28.4146 36.4067 27.9313 36.8016 27.5381L41.1792 23.2469C41.6332 22.7971 41.9531 22.23 42.1034 21.6089C42.2537 20.9878 42.2283 20.3372 42.0301 19.7297C41.8319 19.1221 41.4687 18.5817 40.9811 18.1687C40.4935 17.7557 39.9006 17.4864 39.2688 17.3909ZM24.816 31.5413C23.8353 31.54 22.8952 31.1495 22.2022 30.4556C21.5092 29.7617 21.12 28.8211 21.12 27.8405C21.12 27.6119 21.2108 27.3928 21.3724 27.2312C21.5339 27.0696 21.7531 26.9789 21.9816 26.9789C22.2101 26.9789 22.4293 27.0696 22.5908 27.2312C22.7524 27.3928 22.8432 27.6119 22.8432 27.8405C22.8432 28.3637 23.051 28.8655 23.421 29.2354C23.791 29.6054 24.2928 29.8133 24.816 29.8133C25.3392 29.8133 25.841 29.6054 26.211 29.2354C26.581 28.8655 26.7888 28.3637 26.7888 27.8405C26.7888 27.6119 26.8796 27.3928 27.0412 27.2312C27.2027 27.0696 27.4219 26.9789 27.6504 26.9789C27.8789 26.9789 28.0981 27.0696 28.2596 27.2312C28.4212 27.3928 28.512 27.6119 28.512 27.8405C28.512 28.8211 28.1228 29.7617 27.4298 30.4556C26.7368 31.1495 25.7967 31.54 24.816 31.5413Z" fill="#FFBA00"/>
<path id="Vector_3" d="M27.648 26.9809C27.4201 26.9809 27.2016 27.0714 27.0405 27.2326C26.8793 27.3937 26.7888 27.6122 26.7888 27.8401C26.7888 28.3633 26.581 28.8651 26.211 29.2351C25.841 29.6051 25.3392 29.8129 24.816 29.8129C24.2928 29.8129 23.791 29.6051 23.421 29.2351C23.0511 28.8651 22.8432 28.3633 22.8432 27.8401C22.8432 27.6116 22.7524 27.3925 22.5908 27.2309C22.4293 27.0693 22.2101 26.9785 21.9816 26.9785C21.7531 26.9785 21.5339 27.0693 21.3724 27.2309C21.2108 27.3925 21.12 27.6116 21.12 27.8401C21.12 28.8204 21.5094 29.7604 22.2025 30.4536C22.8957 31.1467 23.8358 31.5361 24.816 31.5361C25.7962 31.5361 26.7363 31.1467 27.4295 30.4536C28.1226 29.7604 28.512 28.8204 28.512 27.8401C28.512 27.7269 28.4896 27.6148 28.4461 27.5102C28.4027 27.4056 28.3389 27.3107 28.2587 27.2309C28.1784 27.151 28.0831 27.0878 27.9783 27.0449C27.8735 27.002 27.7612 26.9803 27.648 26.9809Z" fill="white"/>
<path id="Vector_4" d="M27.288 8.32822C27.3408 8.38582 27.3888 8.45302 27.4368 8.51542C27.3888 8.44822 27.36 8.38102 27.288 8.32822ZM18.3024 15.6386C18.4143 15.5291 18.5185 15.412 18.6144 15.2882C18.5182 15.4118 18.414 15.5288 18.3024 15.6386Z" fill="white"/>
<path id="Vector_5" d="M28.392 11.5201C28.3915 10.7995 28.258 10.0851 27.9984 9.41289L27.8688 9.15369C27.7919 8.99709 27.7036 8.84629 27.6048 8.70249C27.552 8.63049 27.4944 8.56809 27.4416 8.50089C27.3888 8.43369 27.3456 8.37129 27.2928 8.31369C27.0722 8.08399 26.8201 7.88681 26.544 7.72809C26.4097 7.64979 26.2702 7.58083 26.1264 7.52169C25.8406 7.40393 25.5403 7.32483 25.2336 7.28649C24.9277 7.2463 24.6179 7.2463 24.312 7.28649C23.8604 7.347 23.4257 7.49808 23.0339 7.73068C22.6421 7.96327 22.3013 8.27259 22.032 8.64009C21.9792 8.71209 21.9312 8.78409 21.8832 8.86089C21.8133 8.96778 21.7492 9.07834 21.6912 9.19209L20.7984 11.0161L18.9936 14.6881C18.9402 14.7969 18.8809 14.9026 18.816 15.0049L18.7392 15.1249L18.6144 15.2881C18.5185 15.4119 18.4143 15.529 18.3024 15.6385C19.1195 16.4724 20.1664 17.0443 21.3096 17.2811C22.4529 17.5179 23.6407 17.4091 24.7219 16.9684C25.8031 16.5277 26.7285 15.7751 27.3804 14.8065C28.0323 13.8379 28.3811 12.6972 28.3824 11.5297L28.392 11.5201Z" fill="#FFBA00"/>
<path id="Vector_6" d="M28.392 11.5201C28.3915 10.7995 28.258 10.0851 27.9984 9.41289L27.8688 9.15369C27.7919 8.99709 27.7036 8.84629 27.6048 8.70249C27.552 8.63049 27.4944 8.56809 27.4416 8.50089C27.3888 8.43369 27.3456 8.37129 27.2928 8.31369C27.0722 8.08399 26.8201 7.88681 26.544 7.72809C26.4097 7.64979 26.2702 7.58083 26.1264 7.52169C25.8406 7.40393 25.5403 7.32483 25.2336 7.28649C24.9277 7.2463 24.6179 7.2463 24.312 7.28649C23.8604 7.347 23.4257 7.49808 23.0339 7.73068C22.6421 7.96327 22.3013 8.27259 22.032 8.64009C21.9792 8.71209 21.9312 8.78409 21.8832 8.86089C21.8133 8.96778 21.7492 9.07834 21.6912 9.19209L20.7984 11.0161L18.9936 14.6881C18.9402 14.7969 18.8809 14.9026 18.816 15.0049L18.7392 15.1249L18.6144 15.2881C18.5185 15.4119 18.4143 15.529 18.3024 15.6385C19.1195 16.4724 20.1664 17.0443 21.3096 17.2811C22.4529 17.5179 23.6407 17.4091 24.7219 16.9684C25.8031 16.5277 26.7285 15.7751 27.3804 14.8065C28.0323 13.8379 28.3811 12.6972 28.3824 11.5297L28.392 11.5201Z" fill="#FEC744"/>
</g>
</svg>
