<svg width="48" height="48" viewBox="0 0 48 48" fill="none" xmlns="http://www.w3.org/2000/svg">
<g id="&#232;&#175;&#129;&#228;&#185;&#166;">
<g id="Group 9679">
<path id="Vector" d="M35.4624 14.8797L33.6 14.3997C33.5152 14.3793 33.4269 14.3785 33.3417 14.3973C33.2566 14.416 33.1768 14.4539 33.1084 14.5079C33.04 14.562 32.9847 14.6309 32.9468 14.7094C32.9089 14.788 32.8894 14.8741 32.8896 14.9613V38.4141H32.9328C33.0768 38.3757 33.3168 38.2461 33.6624 37.3869C33.7296 37.2189 33.8112 36.9933 33.8928 36.7245L38.0592 19.0173C38.2578 18.1247 38.0965 17.1898 37.6104 16.4152C37.1243 15.6407 36.3526 15.089 35.4624 14.8797ZM41.1456 20.9853L40.0032 20.3949C39.9257 20.3546 39.8401 20.3324 39.7528 20.33C39.6655 20.3276 39.5788 20.3451 39.4993 20.3812C39.4198 20.4173 39.3495 20.471 39.2937 20.5382C39.238 20.6054 39.1983 20.6844 39.1776 20.7693L34.9248 37.8189H34.9776C35.2685 37.6976 35.5138 37.4877 35.6784 37.2189C35.7864 37.0755 35.8843 36.9247 35.9712 36.7677L42.2736 24.5181C42.5903 23.8996 42.6494 23.181 42.4381 22.5191C42.2268 21.8572 41.7621 21.3058 41.1456 20.9853Z" fill="#FF7E00"/>
<path id="Vector_2" d="M14.0016 19.1091C16.0385 19.1091 17.9919 18.3 19.4322 16.8597C20.8724 15.4194 21.6816 13.466 21.6816 11.4291V11.1123H11.1984C10.28 11.1148 9.40002 11.4808 8.75064 12.1302C8.10126 12.7795 7.73533 13.6596 7.73279 14.5779V15.8403C8.43746 16.8495 9.37533 17.6736 10.4667 18.2427C11.5581 18.8118 12.7707 19.109 14.0016 19.1091Z" fill="#FF7E00"/>
<path id="Vector_3" d="M14.0016 19.1091C16.0385 19.1091 17.9919 18.3 19.4322 16.8597C20.8724 15.4194 21.6816 13.466 21.6816 11.4291V11.1123H11.1984C10.28 11.1148 9.40002 11.4808 8.75064 12.1302C8.10126 12.7795 7.73533 13.6596 7.73279 14.5779V15.8403C8.43746 16.8495 9.37533 17.6736 10.4667 18.2427C11.5581 18.8118 12.7707 19.109 14.0016 19.1091Z" fill="#FD973F"/>
<g id="Group 9678">
<path id="Vector_4" d="M9.27841 10.6514H9.12001C8.24112 10.6539 7.39895 11.0042 6.77748 11.6256C6.15601 12.2471 5.80574 13.0893 5.80321 13.9682V14.117C5.80575 13.197 6.17301 12.3155 6.82446 11.6658C7.47591 11.0162 8.35839 10.6514 9.27841 10.6514ZM28.392 11.1314H21.648V11.4482C21.6302 13.0667 21.1015 14.6382 20.1373 15.9383C19.1732 17.2385 17.8229 18.2007 16.2794 18.6878C14.7358 19.1748 13.0777 19.1617 11.542 18.6503C10.0063 18.1389 8.67146 17.1554 7.72801 15.8402V36.509C7.72673 37.3895 8.07465 38.2347 8.6955 38.8591C9.31635 39.4836 10.1595 39.8364 11.04 39.8402H28.392C29.2709 39.8376 30.1131 39.4874 30.7345 38.8659C31.356 38.2444 31.7063 37.4023 31.7088 36.5234V14.4434C31.705 13.5653 31.3542 12.7244 30.7329 12.1039C30.1115 11.4835 29.2701 11.1339 28.392 11.1314ZM22.8912 30.4466C22.8918 30.6037 22.8457 30.7574 22.7587 30.8882C22.6718 31.0191 22.5478 31.1211 22.4027 31.1813C22.2576 31.2415 22.0979 31.2572 21.9438 31.2263C21.7898 31.1955 21.6484 31.1196 21.5376 31.0082L19.7232 29.1938L17.904 31.0034C17.8321 31.0745 17.7474 31.1315 17.6544 31.1714C17.5573 31.2127 17.4528 31.2339 17.3472 31.2338C17.1418 31.2308 16.9456 31.1482 16.8 31.0034C16.729 30.9313 16.6721 30.8467 16.632 30.7538C16.591 30.6566 16.5697 30.5521 16.5696 30.4466V27.8402C17.4984 28.4894 18.6043 28.8376 19.7376 28.8376C20.8709 28.8376 21.9768 28.4894 22.9056 27.8402L22.8912 30.4466ZM19.7232 28.0466C18.7834 28.0466 17.8646 27.7679 17.0831 27.2457C16.3017 26.7236 15.6926 25.9814 15.3329 25.1131C14.9733 24.2448 14.8792 23.2893 15.0625 22.3675C15.2459 21.4457 15.6985 20.599 16.363 19.9344C17.0276 19.2698 17.8743 18.8172 18.7961 18.6339C19.7179 18.4505 20.6734 18.5446 21.5417 18.9043C22.41 19.264 23.1522 19.873 23.6744 20.6545C24.1965 21.436 24.4752 22.3547 24.4752 23.2946C24.4784 23.9206 24.3578 24.5411 24.1204 25.1205C23.883 25.6998 23.5335 26.2265 23.0919 26.6703C22.6503 27.1141 22.1254 27.4663 21.5473 27.7066C20.9692 27.9469 20.3493 28.0706 19.7232 28.0706V28.0466Z" fill="#FF7E00"/>
<path id="Vector 188" d="M11.52 29.8804L13.44 22.3204L17.76 18.6004L19.68 17.7604L22.32 17.4004L26.04 18.2404C26.28 19.9604 26.76 23.5924 26.76 24.3604C26.76 25.3204 23.88 34.0804 23.28 34.4404C22.8 34.7284 18.04 34.5604 15.72 34.4404L11.52 29.8804Z" fill="#FF7E00"/>
</g>
<path id="Vector_5" d="M19.08 31.44C16.7601 31.44 14.88 29.5599 14.88 27.24C14.88 24.9202 16.7601 23.04 19.08 23.04C21.3999 23.04 23.28 24.9202 23.28 27.24C23.28 29.5599 21.3999 31.44 19.08 31.44ZM21.0063 26.0152C21.0852 25.9363 21.0852 25.8083 21.0063 25.7294L20.5772 25.3002C20.4983 25.2213 20.3703 25.2213 20.2914 25.3002L19.0762 26.5155L17.8609 25.3002C17.782 25.2213 17.654 25.2213 17.5751 25.3002L17.146 25.7294C17.0671 25.8083 17.0671 25.9363 17.146 26.0152L18.3612 27.2304L17.146 28.4457C17.0671 28.5246 17.0671 28.6525 17.146 28.7314L17.5751 29.1606C17.654 29.2395 17.782 29.2395 17.8609 29.1606L19.0762 27.9453L20.2914 29.1606C20.3703 29.2395 20.4983 29.2395 20.5772 29.1606L21.0063 28.7314C21.0852 28.6525 21.0852 28.5246 21.0063 28.4457L19.7911 27.2304L21.0063 26.0152Z" fill="white"/>
</g>
</g>
</svg>
