<svg width="48" height="48" viewBox="0 0 48 48" fill="none" xmlns="http://www.w3.org/2000/svg">
<g id="&#229;&#138;&#168;&#230;&#128;&#129;">
<path id="Vector" d="M22.6256 20.7824C22.6784 20.8496 22.7408 20.912 22.7888 20.984C22.736 20.912 22.6784 20.8496 22.6256 20.7824ZM14.1776 26.96C14.124 27.0687 14.0647 27.1744 14 27.2768C14.0649 27.1745 14.1242 27.0688 14.1776 26.96Z" fill="#FFBA00"/>
<path id="Vector_2" d="M26.9856 21.0416C27.0384 21.0992 27.0864 21.1664 27.1344 21.2288C27.0864 21.1616 27.0576 21.0944 26.9856 21.0416ZM18 28.352C18.1119 28.2425 18.2162 28.1254 18.312 28.0016C18.2159 28.1252 18.1116 28.2422 18 28.352Z" fill="white"/>
<g id="Group 9680">
<path id="Vector_3" d="M8.60393 19.119H11.2262C11.6516 19.119 12.0595 18.95 12.3603 18.6492C12.6611 18.3484 12.8301 17.9405 12.8301 17.5151C12.8301 17.0897 12.6611 16.6817 12.3603 16.3809C12.0595 16.0801 11.6516 15.9111 11.2262 15.9111H8.60393C8.17854 15.9111 7.77058 16.0801 7.46978 16.3809C7.16899 16.6817 7 17.0897 7 17.5151C7 17.9405 7.16899 18.3484 7.46978 18.6492C7.77058 18.95 8.17854 19.119 8.60393 19.119ZM8.60393 26.4918H11.2262C11.6516 26.4918 12.0595 26.3229 12.3603 26.0221C12.6611 25.7213 12.8301 25.3133 12.8301 24.8879C12.8301 24.4625 12.6611 24.0546 12.3603 23.7538C12.0595 23.453 11.6516 23.284 11.2262 23.284H8.60393C8.17854 23.284 7.77058 23.453 7.46978 23.7538C7.16899 24.0546 7 24.4625 7 24.8879C7 25.3133 7.16899 25.7213 7.46978 26.0221C7.77058 26.3229 8.17854 26.4918 8.60393 26.4918ZM8.60393 33.6068H11.2262C11.6516 33.6068 12.0595 33.4379 12.3603 33.1371C12.6611 32.8363 12.8301 32.4283 12.8301 32.0029C12.8301 31.5775 12.6611 31.1696 12.3603 30.8688C12.0595 30.568 11.6516 30.399 11.2262 30.399H8.60393C8.17854 30.399 7.77058 30.568 7.46978 30.8688C7.16899 31.1696 7 31.5775 7 32.0029C7 32.4283 7.16899 32.8363 7.46978 33.1371C7.77058 33.4379 8.17854 33.6068 8.60393 33.6068Z" fill="#1082FF"/>
<path id="Vector_4" d="M29.2666 9H28.8601C28.1231 10.4158 27.7416 11.9896 27.7486 13.5857C27.7555 15.1819 28.1507 16.7523 28.9001 18.1616C29.6495 19.5709 30.7305 20.7767 32.0499 21.6749C33.3693 22.5731 34.8875 23.1369 36.4734 23.3174V16.2024C36.4676 14.2932 35.7063 12.464 34.3559 11.1144C33.0055 9.76478 31.1758 9.00461 29.2666 9Z" fill="#1082FF"/>
<path id="Vector_5" d="M29.2666 9H28.8601C28.1231 10.4158 27.7416 11.9896 27.7486 13.5857C27.7555 15.1819 28.1507 16.7523 28.9001 18.1616C29.6495 19.5709 30.7305 20.7767 32.0499 21.6749C33.3693 22.5731 34.8875 23.1369 36.4734 23.3174V16.2024C36.4676 14.2932 35.7063 12.464 34.3559 11.1144C33.0055 9.76478 31.1758 9.00461 29.2666 9Z" fill="#459CFC"/>
<g id="Group 9677">
<path id="Vector_6" d="M27.7508 13.5408C27.7489 11.9598 28.1297 10.4018 28.8609 9H16.1561C14.5902 9.00565 13.0686 9.52027 11.8207 10.4663C10.5728 11.4122 9.66624 12.7383 9.2378 14.2445C9.209 14.3518 9.20526 14.4644 9.22688 14.5735C9.24849 14.6825 9.29488 14.7851 9.36246 14.8734C9.43004 14.9617 9.517 15.0332 9.61663 15.0826C9.71625 15.1319 9.82589 15.1577 9.93706 15.1579H11.6546C12.1318 15.159 12.5891 15.3491 12.9266 15.6865C13.264 16.024 13.4541 16.4813 13.4552 16.9585V17.8937C13.4541 18.3709 13.264 18.8283 12.9266 19.1657C12.5891 19.5031 12.1318 19.6932 11.6546 19.6943H9.67483C9.48358 19.6943 9.30017 19.7703 9.16493 19.9056C9.02969 20.0408 8.95372 20.2242 8.95372 20.4155V21.8402C8.95372 22.0315 9.02969 22.2149 9.16493 22.3501C9.30017 22.4853 9.48358 22.5613 9.67483 22.5613H11.659C12.1362 22.5625 12.5935 22.7526 12.9309 23.09C13.2684 23.4274 13.4584 23.8847 13.4596 24.3619V25.2972C13.4584 25.7744 13.2684 26.2317 12.9309 26.5691C12.5935 26.9066 12.1362 27.0966 11.659 27.0978H9.67483C9.48358 27.0978 9.30017 27.1738 9.16493 27.309C9.02969 27.4442 8.95372 27.6276 8.95372 27.8189V28.9334C8.95372 29.1246 9.02969 29.308 9.16493 29.4433C9.30017 29.5785 9.48358 29.6545 9.67483 29.6545H11.659C12.1362 29.6556 12.5935 29.8457 12.9309 30.1831C13.2684 30.5206 13.4584 30.9779 13.4596 31.4551V32.3903C13.4584 32.8675 13.2684 33.3248 12.9309 33.6623C12.5935 33.9997 12.1362 34.1898 11.659 34.1909H9.78846C9.68137 34.1903 9.57548 34.2135 9.47838 34.2586C9.38128 34.3038 9.29539 34.3699 9.22688 34.4522C9.15836 34.5345 9.10891 34.631 9.08209 34.7347C9.05526 34.8384 9.05172 34.9467 9.07172 35.0519C9.36947 36.7159 10.2416 38.2226 11.5362 39.3095C12.8308 40.3965 14.4657 40.9947 16.1561 41H29.2673C31.1765 40.9954 33.0062 40.2352 34.3566 38.8856C35.707 37.536 36.4683 35.7068 36.4741 33.7976V23.3087C34.075 23.0342 31.8605 21.8873 30.252 20.0862C28.6436 18.2851 27.7533 15.9556 27.7508 13.5408ZM30.8363 32.1063C30.7781 32.1105 30.7196 32.1105 30.6615 32.1063C30.4282 32.1053 30.2025 32.0232 30.0231 31.8741C29.8437 31.725 29.7217 31.5182 29.6781 31.289C29.4259 29.9698 28.7217 28.7799 27.6867 27.924C26.6516 27.0681 25.3506 26.5998 24.0075 26.5998C22.6645 26.5998 21.3634 27.0681 20.3284 27.924C19.2934 28.7799 18.5892 29.9698 18.337 31.289C18.3123 31.4186 18.2623 31.542 18.1899 31.6523C18.1174 31.7625 18.0238 31.8572 17.9145 31.9312C17.8053 32.0051 17.6825 32.0567 17.5532 32.083C17.424 32.1093 17.2908 32.1098 17.1613 32.0844C17.0313 32.0603 16.9074 32.0107 16.7967 31.9384C16.686 31.8661 16.5907 31.7726 16.5164 31.6633C16.442 31.554 16.39 31.431 16.3634 31.3015C16.3369 31.172 16.3362 31.0385 16.3615 30.9088C16.624 29.5609 17.2392 28.3068 18.1444 27.2741C19.0496 26.2415 20.2124 25.4674 21.5142 25.0306C20.674 24.4925 20.0308 23.6966 19.6809 22.7621C19.3311 21.8277 19.2936 20.805 19.5739 19.8474C19.8543 18.8898 20.4374 18.0489 21.2359 17.4506C22.0345 16.8524 23.0054 16.529 24.0032 16.529C25.0009 16.529 25.9719 16.8524 26.7704 17.4506C27.5689 18.0489 28.152 18.8898 28.4324 19.8474C28.7127 20.805 28.6752 21.8277 28.3254 22.7621C27.9756 23.6966 27.3323 24.4925 26.4921 25.0306C27.7978 25.4682 28.9636 26.2452 29.8699 27.282C30.7761 28.3189 31.3902 29.5781 31.6492 30.9306C31.6977 31.1937 31.6398 31.4653 31.4882 31.6857C31.3366 31.9062 31.1037 32.0574 30.8406 32.1063H30.8363Z" fill="#1082FF"/>
<path id="Vector 187" d="M31.7184 38.2197L14.7831 36.3622V25.764L16.2035 18.2251L24.2887 12.2158L28.5499 19.2084L30.0795 22.7048L33.248 29.6974L31.7184 38.2197Z" fill="#1082FF"/>
</g>
<path id="Vector_7" d="M29.534 20.9624C29.5685 21.0403 29.5965 21.1312 29.6181 21.235C29.6396 21.3389 29.6504 21.4471 29.6504 21.5596C29.6504 21.6721 29.6288 21.7847 29.5857 21.8972C29.5426 22.0097 29.4736 22.1179 29.3788 22.2218C29.2753 22.3256 29.1826 22.4165 29.1007 22.4944C29.0188 22.5723 28.9477 22.6416 28.8873 22.7022C28.8184 22.7714 28.7537 22.832 28.6934 22.8839L26.2749 20.456C26.3784 20.3608 26.5012 20.2461 26.6435 20.112C26.7857 19.9778 26.9043 19.8718 26.9991 19.7939C27.1198 19.6987 27.2449 19.6316 27.3742 19.5926C27.5035 19.5537 27.6307 19.5364 27.7557 19.5407C27.8807 19.545 28.0014 19.5645 28.1178 19.5991C28.2342 19.6337 28.3355 19.6727 28.4218 19.716C28.6028 19.8112 28.8033 19.9778 29.0231 20.2158C29.243 20.4539 29.4133 20.7027 29.534 20.9624ZM19.4592 27.2983C19.511 27.2464 19.6317 27.123 19.8214 26.9283C20.011 26.7335 20.2481 26.4933 20.5327 26.2077L21.4768 25.2599L22.5243 24.2082L25.3049 21.4168L27.7234 23.8577L24.9428 26.6491L23.9082 27.7008C23.5633 28.0384 23.2529 28.3478 22.977 28.6291C22.7011 28.9104 22.4726 29.1419 22.2916 29.3237C22.1105 29.5055 22.0027 29.6093 21.9682 29.6353C21.882 29.7132 21.7829 29.7954 21.6708 29.882C21.5587 29.9686 21.4423 30.0378 21.3216 30.0897C21.2009 30.1503 21.0241 30.2239 20.7913 30.3105C20.5585 30.397 20.315 30.4814 20.0606 30.5636C19.8063 30.6459 19.5649 30.7173 19.3364 30.7779C19.1079 30.8384 18.9376 30.8774 18.8255 30.8947C18.5927 30.9207 18.4375 30.8861 18.3599 30.7908C18.2823 30.6956 18.2608 30.5355 18.2953 30.3105C18.3125 30.1893 18.3535 30.014 18.4181 29.7846C18.4828 29.5553 18.5518 29.3172 18.6251 29.0705C18.6984 28.8238 18.7695 28.5966 18.8385 28.3889C18.9074 28.1812 18.9635 28.0384 19.0066 27.9605C19.0583 27.8393 19.1165 27.7289 19.1812 27.6294C19.2458 27.5298 19.3385 27.4195 19.4592 27.2983Z" fill="white"/>
</g>
</g>
</svg>
