<svg width="19" height="19" viewBox="0 0 19 19" fill="none" xmlns="http://www.w3.org/2000/svg">
<g id="Group 9683">
<path id="Vector" d="M1.35758 18.6667C0.997524 18.6667 0.652219 18.5236 0.397625 18.269C0.14303 18.0144 5.27419e-09 17.6691 0 17.3091V6.61818C0 6.25813 0.14303 5.91283 0.397625 5.65823C0.652219 5.40364 0.997524 5.26061 1.35758 5.26061H5.19103V0.675394C5.19103 0.302061 5.4897 -1.98864e-08 5.87321 0H17.9845C18.3612 0 18.6667 0.29697 18.6667 0.675394V17.9913C18.6667 18.3646 18.3671 18.6667 17.9845 18.6667H1.35758ZM5.19103 16.6303V7.29697H2.03636V16.6303H5.19103ZM15.1565 8.9897L12.8325 3.18606H11.5937L9.33333 8.9897H10.5764L11.0549 7.67115H13.3747L13.8821 8.9897H15.1565ZM12.9988 6.6937H11.4155L12.1995 4.54024L12.9988 6.6937ZM7.6703 11.4215C7.6703 11.6488 7.86291 11.8457 8.10218 11.8457H15.7216C15.9617 11.8457 16.1543 11.6556 16.1543 11.4215C16.1521 11.3082 16.1055 11.2003 16.0246 11.1209C15.9437 11.0416 15.8349 10.9972 15.7216 10.9972H8.10218C8.04591 10.9966 7.99008 11.0072 7.93788 11.0282C7.88568 11.0492 7.83813 11.0803 7.79795 11.1197C7.75776 11.1591 7.72574 11.206 7.70369 11.2578C7.68164 11.3096 7.67001 11.3652 7.66945 11.4215H7.6703ZM7.6703 14.7484C7.6703 14.9758 7.86291 15.1726 8.10218 15.1726H15.7216C15.9617 15.1726 16.1543 14.9825 16.1543 14.7484C16.1521 14.6351 16.1055 14.5272 16.0246 14.4478C15.9437 14.3685 15.8349 14.3241 15.7216 14.3241H8.10218C8.04591 14.3236 7.99008 14.3341 7.93788 14.3551C7.88568 14.3761 7.83813 14.4072 7.79795 14.4466C7.75776 14.486 7.72574 14.5329 7.70369 14.5847C7.68164 14.6365 7.67001 14.6921 7.66945 14.7484H7.6703Z" fill="#11D075"/>
</g>
</svg>
