<svg width="48" height="48" viewBox="0 0 48 48" fill="none" xmlns="http://www.w3.org/2000/svg">
<g id="&#232;&#128;&#131;&#229;&#139;&#164;">
<path id="Vector" d="M24.6432 37.224C24.6429 38.2056 24.5088 39.1826 24.2448 40.128H27.2544C27.3848 40.1294 27.5133 40.0962 27.6268 40.0319C27.7402 39.9676 27.8347 39.8744 27.9005 39.7618C27.9663 39.6492 28.0011 39.5212 28.0015 39.3908C28.0018 39.2603 27.9676 39.1321 27.9024 39.0192C26.905 37.2945 26.5097 35.287 26.7789 33.3129C27.0481 31.3389 27.9664 29.5105 29.3891 28.1158C30.8119 26.7211 32.6582 25.8393 34.6372 25.6095C36.6163 25.3797 38.6155 25.8149 40.32 26.8464C40.4326 26.9148 40.5614 26.952 40.6931 26.9539C40.8249 26.9558 40.9548 26.9225 41.0693 26.8574C41.1838 26.7923 41.2789 26.6978 41.3446 26.5836C41.4104 26.4694 41.4444 26.3397 41.4432 26.208V18.6C41.4375 16.9823 40.9071 15.4101 39.9317 14.1196C38.9562 12.8291 37.5884 11.8899 36.0336 11.4432C35.9214 11.4102 35.8031 11.404 35.688 11.4249C35.573 11.4459 35.4645 11.4935 35.3712 11.564C35.2779 11.6344 35.2023 11.7258 35.1507 11.8306C35.099 11.9355 35.0726 12.0511 35.0736 12.168V13.464C35.0736 14.2752 34.4016 15.264 32.8368 15.264C31.272 15.264 30.6 14.2752 30.6 13.464V11.8944C30.6 11.6971 30.5216 11.5078 30.3821 11.3683C30.2426 11.2288 30.0533 11.1504 29.856 11.1504H19.296C19.0987 11.1504 18.9094 11.2288 18.7699 11.3683C18.6304 11.5078 18.552 11.6971 18.552 11.8944V13.464C18.552 14.2752 17.88 15.264 16.3152 15.264C14.7504 15.264 14.0784 14.2752 14.0784 13.464V12.0672C14.0786 11.9557 14.054 11.8456 14.0062 11.7448C13.9584 11.6441 13.8887 11.5553 13.8023 11.4849C13.7158 11.4145 13.6147 11.3643 13.5063 11.338C13.398 11.3117 13.2851 11.3099 13.176 11.3328C11.5303 11.711 10.0611 12.6351 9.00738 13.9546C7.95369 15.2741 7.37758 16.9114 7.3728 18.6V28.56C8.97994 27.3591 10.8896 26.6291 12.888 26.4519C14.8864 26.2746 16.8947 26.6569 18.6881 27.5561C20.4816 28.4554 21.9894 29.8359 23.0428 31.5434C24.0962 33.2508 24.6537 35.2177 24.6528 37.224H24.6432ZM11.8992 20.9856V18.504C11.9005 18.2409 12.0056 17.9889 12.1916 17.8028C12.3777 17.6167 12.6297 17.5117 12.8928 17.5104H35.9328C36.1959 17.5117 36.4479 17.6167 36.634 17.8028C36.8201 17.9889 36.9251 18.2409 36.9264 18.504V20.9856C36.9251 21.2487 36.8201 21.5007 36.634 21.6868C36.4479 21.8728 36.1959 21.9779 35.9328 21.9792H12.8928C12.6297 21.9779 12.3777 21.8728 12.1916 21.6868C12.0056 21.5007 11.9005 21.2487 11.8992 20.9856Z" fill="#01C700"/>
<path id="Vector_2" d="M34.4256 13.3586V9.75859C34.4256 9.22099 34.0512 8.55859 32.9376 8.55859C31.824 8.55859 31.4496 9.21619 31.4496 9.75859V13.3586C31.4496 13.8962 31.896 14.5586 32.9376 14.5586C33.9792 14.5586 34.4256 13.9202 34.4256 13.3586ZM17.8752 13.3586V9.75859C17.8752 9.22099 17.5008 8.55859 16.3872 8.55859C15.2736 8.55859 14.88 9.22099 14.88 9.75859V13.3586C14.88 13.8962 15.3264 14.5586 16.368 14.5586C17.4096 14.5586 17.8752 13.9202 17.8752 13.3586Z" fill="#01C700"/>
<path id="Vector_3" d="M11.8992 17.5107H36.9264V21.9795H11.8992V17.5107Z" fill="white"/>
<path id="Vector_4" d="M35.6544 27.5615C34.2968 27.5615 32.9697 27.9641 31.841 28.7183C30.7122 29.4725 29.8324 30.5446 29.3129 31.7988C28.7934 33.053 28.6574 34.4331 28.9223 35.7646C29.1871 37.0961 29.8409 38.3192 30.8008 39.2791C31.7608 40.2391 32.9838 40.8928 34.3153 41.1576C35.6468 41.4225 37.0269 41.2866 38.2811 40.767C39.5354 40.2475 40.6074 39.3677 41.3616 38.239C42.1158 37.1102 42.5184 35.7831 42.5184 34.4255C42.5184 32.6051 41.7952 30.8592 40.508 29.5719C39.2207 28.2847 37.4748 27.5615 35.6544 27.5615ZM39.7008 33.1871L35.6496 37.2383C35.44 37.4473 35.156 37.5647 34.86 37.5647C34.564 37.5647 34.28 37.4473 34.0704 37.2383L31.6128 34.7807C31.4994 34.6793 31.4079 34.5559 31.3439 34.4179C31.2798 34.2799 31.2446 34.1303 31.2404 33.9782C31.2361 33.8262 31.263 33.6748 31.3192 33.5335C31.3755 33.3922 31.4599 33.2638 31.5675 33.1562C31.6751 33.0487 31.8034 32.9642 31.9448 32.9079C32.0861 32.8517 32.2374 32.8249 32.3895 32.8291C32.5416 32.8333 32.6912 32.8686 32.8291 32.9326C32.9671 32.9966 33.0906 33.0881 33.192 33.2015L34.8624 34.8719L38.1216 31.6127C38.223 31.4993 38.3465 31.4078 38.4844 31.3438C38.6224 31.2798 38.772 31.2445 38.9241 31.2403C39.0761 31.2361 39.2275 31.2629 39.3688 31.3191C39.5101 31.3754 39.6385 31.4599 39.7461 31.5674C39.8536 31.675 39.9381 31.8034 39.9944 31.9447C40.0506 32.086 40.0775 32.2374 40.0732 32.3894C40.069 32.5415 40.0338 32.6911 39.9697 32.8291C39.9057 32.9671 39.8142 33.0905 39.7008 33.1919V33.1871Z" fill="#01C700"/>
<path id="Vector_5" d="M38.1216 31.6083L34.8624 34.8675L33.192 33.1971C33.0906 33.0837 32.9671 32.9922 32.8291 32.9282C32.6912 32.8641 32.5416 32.8289 32.3895 32.8247C32.2375 32.8204 32.0861 32.8473 31.9448 32.9035C31.8035 32.9598 31.6751 33.0442 31.5675 33.1518C31.46 33.2594 31.3755 33.3877 31.3192 33.5291C31.263 33.6704 31.2361 33.8217 31.2404 33.9738C31.2446 34.1259 31.2798 34.2755 31.3439 34.4134C31.4079 34.5514 31.4994 34.6749 31.6128 34.7763L34.08 37.2435C34.2896 37.4525 34.5736 37.5698 34.8696 37.5698C35.1656 37.5698 35.4496 37.4525 35.6592 37.2435L39.7104 33.1923C39.8238 33.0909 39.9153 32.9674 39.9793 32.8294C40.0434 32.6915 40.0786 32.5419 40.0828 32.3898C40.0871 32.2377 40.0602 32.0864 40.004 31.9451C39.9477 31.8037 39.8633 31.6754 39.7557 31.5678C39.6481 31.4602 39.5197 31.3758 39.3784 31.3195C39.2371 31.2633 39.0858 31.2364 38.9337 31.2407C38.7816 31.2449 38.632 31.2801 38.4941 31.3442C38.3561 31.4082 38.2326 31.4997 38.1312 31.6131L38.1216 31.6083Z" fill="white"/>
<path id="Vector_6" d="M14.8272 40.1283H24.2496C24.8557 37.9556 24.767 35.6477 23.9958 33.5279C23.2246 31.4082 21.8096 29.5828 19.949 28.3075C18.0885 27.0322 15.8756 26.3709 13.6204 26.4162C11.3651 26.4616 9.18061 27.2113 7.3728 28.5603V32.6787C7.37914 34.6533 8.1667 36.5452 9.56343 37.941C10.9602 39.3369 12.8526 40.1232 14.8272 40.1283Z" fill="#01C700"/>
<path id="Vector_7" d="M14.8272 40.1283H24.2496C24.8557 37.9556 24.767 35.6477 23.9958 33.5279C23.2246 31.4082 21.8096 29.5828 19.949 28.3075C18.0885 27.0322 15.8756 26.3709 13.6204 26.4162C11.3651 26.4616 9.18061 27.2113 7.3728 28.5603V32.6787C7.37914 34.6533 8.1667 36.5452 9.56343 37.941C10.9602 39.3369 12.8526 40.1232 14.8272 40.1283Z" fill="#3DD240"/>
</g>
</svg>
