<svg width="20" height="18" viewBox="0 0 20 18" fill="none" xmlns="http://www.w3.org/2000/svg">
<g id="Group 9684">
<path id="Vector" d="M2.94007 0.0418126V12.663C2.94007 12.663 7.77138 12.1151 8.72451 13.7239C8.72451 10.9922 8.77533 1.31719 8.77533 1.31719C8.77533 1.31719 7.72553 -0.275483 2.94007 0.0418126ZM16.15 0.0418126V12.663C16.15 12.663 11.3186 12.1151 10.3655 13.7239C10.3655 10.9922 10.3147 1.31719 10.3147 1.31719C10.3147 1.31719 11.3645 -0.275483 16.15 0.0418126Z" fill="#3A9CED"/>
<path id="Vector_2" d="M9.53587 18C9.31401 18 9.09339 17.9269 8.9112 17.7831L6.99379 16.2685H1.00732C0.740405 16.2685 0.484418 16.1625 0.295678 15.9737C0.106937 15.785 0.000904083 15.529 0.000904083 15.2621V2.11167L2.01498 1.24902V14.2557H7.34579C7.57261 14.2557 7.79199 14.3325 7.96923 14.4726L9.59165 15.7541L11.4781 14.5159C11.6422 14.4081 11.8344 14.3508 12.0309 14.3511H17.0592V1.37545L19.0733 2.23809V15.3575C19.0733 15.6244 18.9673 15.8804 18.7785 16.0692C18.5898 16.2579 18.3338 16.3639 18.0669 16.3639H12.332L10.0899 17.8351C9.92512 17.9426 9.73263 17.9999 9.53587 18Z" fill="#2595E8"/>
<path id="Vector_3" d="M17.0583 8.07335C17.6458 6.45837 17.9668 4.71572 17.9668 2.89747C17.9668 2.51077 17.952 2.12654 17.9235 1.74728L17.0583 1.37668V8.07335ZM12.0299 14.3511C11.8341 14.3511 11.642 14.4081 11.4772 14.5159L9.59074 15.7541L7.96832 14.4725C7.79074 14.3323 7.57115 14.2559 7.34489 14.2556H2.01408V1.24902L0 2.11167V15.2621C0 15.529 0.106033 15.785 0.294774 15.9737C0.483514 16.1625 0.739501 16.2685 1.00642 16.2685H6.99413L8.0526 17.1051C9.77913 16.4705 11.3582 15.531 12.7228 14.3511H12.0299Z" fill="#3A9CED"/>
<path id="Vector_4" d="M2.01408 12.2899V1.24902L0 2.11167V12.5985C0.685407 12.5403 1.35842 12.4362 2.01408 12.2899ZM2.93994 0.0418126V12.0507C5.11514 11.4161 7.08832 10.3056 8.73925 8.84056C8.75412 5.27347 8.77519 1.31719 8.77519 1.31719C8.77519 1.31719 7.72539 -0.275483 2.93994 0.0418126ZM10.3158 1.31719C10.3158 1.31719 10.3307 4.14806 10.3443 7.18096C12.0064 5.17803 13.1616 2.74006 13.6139 0.0616435C10.9739 0.321925 10.3158 1.31719 10.3158 1.31719Z" fill="#59ADF8"/>
<path id="Vector_5" d="M2.01408 5.52036V1.24926L0 2.11191V6.41399C0.696562 6.16486 1.36957 5.86492 2.01408 5.52036ZM7.51593 0.506843C6.64089 0.170957 5.21182 -0.109156 2.93994 0.0420554V4.98244C4.76518 3.83168 6.32497 2.30611 7.51593 0.506843Z" fill="#6BC2FC"/>
</g>
</svg>
